<?xml version="1.0" encoding="utf-8"?>
<!-- Generator: Adobe Illustrator 23.0.1, SVG Export Plug-In . SVG Version: 6.00 Build 0)  -->
<svg version="1.1" id="Layer_1" xmlns="http://www.w3.org/2000/svg" xmlns:xlink="http://www.w3.org/1999/xlink" x="0px" y="0px"
	 viewBox="0 0 661.64 233.25" style="enable-background:new 0 0 661.64 233.25;" xml:space="preserve">
<style type="text/css">
	.st0{fill:#F9D37D;}
	.st1{fill:#36516F;}
	.st2{fill:#808285;}
</style>
<g>
	<path class="st0" d="M139.38,224.9L70.32,10.28C69.36,6.33,71.26,2,77.87,2h38.74c8.98-0.01,9.07,2.08,11.21,8.89l67.17,208.76
		c0.73,2.6,3.53,9.03-8.69,9.03h-41.62C142.29,228.74,140.11,227.01,139.38,224.9z"/>
	<g>
		<path class="st1" d="M92.17,149.46h-64.2c-0.68,0-1.17-0.63-0.97-1.25l32.1-100.14c0.29-0.91,1.65-0.91,1.94,0l32.1,100.14
			C93.34,148.83,92.85,149.46,92.17,149.46z"/>
		<path class="st1" d="M115.83,228.67H4.3c-1.55,0-2.65-1.43-2.2-2.84l15.55-48.5c0.3-0.92,1.19-1.55,2.2-1.55h80.43
			c1.01,0,1.9,0.63,2.2,1.55l15.55,48.5C118.48,227.24,117.37,228.67,115.83,228.67z"/>
	</g>
	<circle class="st1" cx="231.39" cy="205.8" r="22.57"/>
</g>
<g>
	<path class="st2" d="M328.61,219.33h-16.38l-3.11,9.34h-9.94l16.88-45.35h8.66l16.97,45.35h-9.94L328.61,219.33z M314.75,211.76
		h11.34l-5.7-16.97L314.75,211.76z"/>
	<path class="st2" d="M395.56,228.67h-9.34l-18.19-29.84v29.84h-9.34v-45.35h9.34l18.22,29.9v-29.9h9.31V228.67z"/>
	<path class="st2" d="M443.76,210.14h-17.94v18.53h-9.34v-45.35H446v7.57h-20.18v11.71h17.94V210.14z"/>
	<path class="st2" d="M473.52,221.17h19.84v7.51h-29.18v-45.35h9.34V221.17z"/>
	<path class="st2" d="M537.67,219.33h-16.38l-3.11,9.34h-9.94l16.88-45.35h8.66l16.97,45.35h-9.94L537.67,219.33z M523.81,211.76
		h11.34l-5.7-16.97L523.81,211.76z"/>
	<path class="st2" d="M591.25,216.78c0-1.76-0.62-3.12-1.87-4.06c-1.25-0.94-3.49-1.94-6.73-2.99c-3.24-1.05-5.8-2.08-7.69-3.1
		c-5.15-2.78-7.72-6.53-7.72-11.24c0-2.45,0.69-4.64,2.07-6.56c1.38-1.92,3.36-3.42,5.95-4.5c2.58-1.08,5.49-1.62,8.71-1.62
		c3.24,0,6.12,0.59,8.66,1.76c2.53,1.17,4.5,2.83,5.9,4.97c1.4,2.14,2.1,4.57,2.1,7.29h-9.34c0-2.08-0.65-3.69-1.96-4.84
		c-1.31-1.15-3.15-1.73-5.51-1.73c-2.29,0-4.06,0.48-5.33,1.45c-1.27,0.97-1.9,2.24-1.9,3.82c0,1.47,0.74,2.71,2.23,3.71
		c1.48,1,3.67,1.93,6.56,2.8c5.32,1.6,9.19,3.58,11.62,5.95c2.43,2.37,3.64,5.32,3.64,8.85c0,3.92-1.49,7-4.45,9.23
		c-2.97,2.23-6.97,3.35-11.99,3.35c-3.49,0-6.67-0.64-9.53-1.92s-5.05-3.03-6.56-5.25c-1.51-2.22-2.26-4.8-2.26-7.72h9.37
		c0,5,2.99,7.51,8.97,7.51c2.22,0,3.96-0.45,5.2-1.35C590.63,219.66,591.25,218.4,591.25,216.78z"/>
	<path class="st2" d="M656.62,228.67h-9.34v-19.43h-18.22v19.43h-9.34v-45.35h9.34v18.38h18.22v-18.38h9.34V228.67z"/>
</g>
</svg>
